<?xml version="1.0" encoding="UTF-8"?>
<svg id="Calque_1" data-name="Calque 1" xmlns="http://www.w3.org/2000/svg" viewBox="0 0 759.59 269">
  <defs>
    <style>
      .cls-1 {
        fill: #fff;
      }
    </style>
  </defs>
  <g>
    <path class="cls-1" d="M237.24,87.9v72.43h-10.04l-37.56-51.74v51.74h-11.69v-72.43h10.76l36.84,50.91v-50.91h11.69Z"/>
    <path class="cls-1" d="M301.29,132.71c0,.55-.02,1.14-.05,1.76-.04.62-.09,1.31-.16,2.07h-45.32c.76,4.49,2.65,8,5.69,10.55,3.17,2.62,7,3.93,11.49,3.93,2.14,0,4.21-.31,6.21-.93,2-.62,3.73-1.55,5.17-2.79,1.52-1.31,2.72-2.79,3.62-4.45h12.11c-2.21,5.93-5.73,10.55-10.55,13.87-4.9,3.31-10.42,4.97-16.56,4.97-8.21,0-15.04-2.79-20.49-8.38-5.45-5.52-8.17-12.49-8.17-20.9s2.76-15.25,8.28-20.9c5.45-5.59,12.28-8.38,20.49-8.38,5.59,0,10.55,1.35,14.9,4.04,4.35,2.69,7.69,6.24,10.04,10.66,2.34,4.42,3.52,9.31,3.52,14.69l-.21.21ZM272.63,113.67c-4.21,0-7.83,1.21-10.87,3.62-3.04,2.42-5,5.73-5.9,9.93h33.84c-.76-2.83-1.9-5.28-3.41-7.35-1.52-2.07-3.45-3.62-5.79-4.66-2.28-1.03-4.83-1.55-7.66-1.55h-.21Z"/>
    <path class="cls-1" d="M332.95,161.79c-7.66,0-13.8-2.28-18.42-6.83-4.62-4.55-6.93-10.59-6.93-18.11v-32.28h11.49v30.56c0,4.89,1.24,8.71,3.73,11.46,2.48,2.75,5.86,4.13,10.14,4.13s7.76-1.41,10.24-4.23c2.48-2.75,3.73-6.57,3.73-11.46v-30.56h11.49v32.28c0,7.52-2.31,13.56-6.93,18.11-4.69,4.55-10.9,6.83-18.63,6.83l.1.1Z"/>
    <path class="cls-1" d="M400.11,104.15v10.87h-6c-9.52,0-14.28,5.17-14.28,15.52v29.8h-11.49v-55.88h7.76l1.97,7.66c4.07-5.31,9.76-7.97,17.07-7.97h4.97Z"/>
    <path class="cls-1" d="M429.5,161.79c-8.62,0-15.76-2.79-21.42-8.38-5.66-5.59-8.49-12.59-8.49-21.01,0-5.45,1.31-10.42,3.93-14.9,2.62-4.48,6.21-7.97,10.76-10.45,4.55-2.48,9.62-3.73,15.21-3.73s10.66,1.24,15.21,3.73c4.55,2.48,8.14,5.97,10.76,10.45,2.62,4.49,3.93,9.45,3.93,14.9,0,8.35-2.83,15.31-8.49,20.9-5.73,5.59-12.87,8.38-21.42,8.38v.1ZM429.19,151.03c3.45,0,6.59-.79,9.42-2.38,2.76-1.52,4.93-3.69,6.52-6.52,1.59-2.83,2.38-6,2.38-9.52,0-5.31-1.69-9.66-5.07-13.04-3.45-3.45-7.8-5.17-13.04-5.17s-9.59,1.73-13.04,5.17-5.07,7.73-5.07,13.04,1.72,9.59,5.17,13.04c3.45,3.45,7.79,5.17,13.04,5.17l-.31.21Z"/>
  </g>
  <g>
    <path class="cls-1" d="M487.78,128.57h-8.49v31.77h-11.9v-72.43h11.9v29.59h8.38l20.7-29.59h14.59l-24.73,34.98,27.01,37.46h-14.8l-22.66-31.77Z"/>
    <path class="cls-1" d="M549.35,161.79c-7.66,0-13.8-2.28-18.42-6.83-4.62-4.55-6.93-10.59-6.93-18.11v-32.28h11.49v30.56c0,4.89,1.24,8.71,3.73,11.46,2.48,2.75,5.86,4.13,10.14,4.13s7.76-1.41,10.24-4.23c2.48-2.75,3.73-6.57,3.73-11.46v-30.56h11.49v32.28c0,7.52-2.31,13.56-6.93,18.11-4.69,4.55-10.9,6.83-18.63,6.83l.1.1Z"/>
    <path class="cls-1" d="M614.54,103.12c8.35,0,15.28,2.79,20.8,8.38,5.52,5.66,8.28,12.62,8.28,20.9s-2.73,15.38-8.17,20.9c-5.52,5.59-12.45,8.38-20.8,8.38-7.73,0-14.32-2.55-19.76-7.66l-1.45,6.31h-8.69v-75.95h11.49v25.25c5.17-4.35,11.31-6.52,18.42-6.52h-.1ZM613.4,151.03c5.24,0,9.59-1.76,13.04-5.28,3.45-3.59,5.17-7.97,5.17-13.14s-1.73-9.55-5.17-13.14c-3.45-3.52-7.8-5.28-13.04-5.28-3.38,0-6.49.79-9.31,2.38-2.83,1.59-5,3.76-6.52,6.52-1.59,2.83-2.38,5.93-2.38,9.31,0,5.17,1.76,9.52,5.28,13.04,3.52,3.52,7.9,5.28,13.14,5.28l-.21.31Z"/>
    <path class="cls-1" d="M703.43,132.71c0,.55-.02,1.14-.05,1.76-.04.62-.09,1.31-.16,2.07h-45.32c.76,4.49,2.65,8,5.69,10.55,3.17,2.62,7,3.93,11.49,3.93,2.14,0,4.21-.31,6.21-.93,2-.62,3.73-1.55,5.17-2.79,1.52-1.31,2.72-2.79,3.62-4.45h12.11c-2.21,5.93-5.73,10.55-10.55,13.87-4.9,3.31-10.42,4.97-16.56,4.97-8.21,0-15.04-2.79-20.49-8.38-5.45-5.52-8.17-12.49-8.17-20.9s2.76-15.25,8.28-20.9c5.45-5.59,12.28-8.38,20.49-8.38,5.59,0,10.55,1.35,14.9,4.04,4.35,2.69,7.69,6.24,10.04,10.66,2.34,4.42,3.52,9.31,3.52,14.69l-.21.21ZM674.76,113.67c-4.21,0-7.83,1.21-10.87,3.62-3.04,2.42-5,5.73-5.9,9.93h33.84c-.76-2.83-1.9-5.28-3.41-7.35-1.52-2.07-3.45-3.62-5.79-4.66-2.28-1.03-4.83-1.55-7.66-1.55h-.21Z"/>
  </g>
  <path class="cls-1" d="M56.22,122.01c.94-.94,2.04-1.68,3.29-2.23,1.25-.54,2.58-.81,3.99-.81,2.83,0,5.28-1.04,7.35-3.11.94-.94,1.69-2.04,2.23-3.29.54-1.25.81-2.58.81-3.99,0-2.83,1.04-5.28,3.11-7.35.94-.94,2.04-1.68,3.29-2.23,1.25-.54,2.58-.81,3.99-.81s2.75.27,3.99.81,2.35,1.28,3.29,2.23c2.07,2.07,3.11,4.52,3.11,7.35,0,1.41.27,2.75.81,3.99.54,1.25,1.28,2.35,2.23,3.29,2.07,2.07,4.52,3.11,7.35,3.11,1.41,0,2.75.27,3.99.81,1.25.54,2.34,1.28,3.29,2.23,2.07,2.07,3.11,4.52,3.11,7.35,0,1.41.27,2.75.81,3.99.54,1.25,1.28,2.34,2.23,3.29,2.07,2.07,4.52,3.11,7.35,3.11s5.28-1.04,7.35-3.11c.94-.94,1.68-2.04,2.23-3.29.54-1.25.81-2.58.81-3.99,0-2.83-1.04-5.28-3.11-7.35-.94-.94-2.04-1.68-3.28-2.23-1.25-.54-2.58-.81-4-.81-2.83,0-5.28-1.03-7.35-3.11-.94-.94-1.68-2.04-2.23-3.29-.54-1.25-.81-2.58-.81-3.99,0-2.83-1.04-5.28-3.11-7.35-.94-.94-2.04-1.68-3.29-2.23-1.25-.54-2.58-.81-3.99-.81-2.83,0-5.28-1.04-7.35-3.11-.94-.94-1.68-2.04-2.23-3.29-.54-1.25-.81-2.58-.81-3.99,0-2.83,1.04-5.28,3.11-7.35.94-.94,2.04-1.68,3.29-2.23,1.25-.54,2.58-.81,3.99-.81,1.41,0,2.75.27,3.99.81,1.25.54,2.35,1.28,3.29,2.23,2.07,2.07,3.11,4.52,3.11,7.35,0,1.41.27,2.74.81,3.99.54,1.25,1.28,2.34,2.23,3.29,2.07,2.07,4.52,3.11,7.35,3.11,1.41,0,2.74.27,3.99.81,1.25.54,2.34,1.28,3.29,2.23,2.07,2.07,3.11,4.52,3.11,7.35,0,1.41.27,2.75.81,3.99.54,1.25,1.28,2.35,2.23,3.29,2.07,2.07,4.52,3.11,7.35,3.11,1.41,0,2.75.27,3.99.81,1.25.54,2.35,1.28,3.29,2.23,2.07,2.07,3.11,4.52,3.11,7.35,0,1.41-.27,2.74-.81,3.99-.54,1.25-1.28,2.34-2.23,3.29-2.07,2.07-4.52,3.11-7.35,3.11-1.41,0-2.75.27-3.99.81-1.25.54-2.34,1.28-3.29,2.23-2.07,2.07-3.11,4.52-3.11,7.35,0,1.42-.27,2.75-.81,4-.54,1.25-1.28,2.34-2.23,3.28-2.07,2.07-4.52,3.11-7.35,3.11-2.83,0-5.28-1.04-7.35-3.11-.94-.94-1.69-2.04-2.23-3.29-.54-1.25-.81-2.58-.81-3.99,0-2.83-1.04-5.28-3.11-7.35-.94-.94-2.04-1.68-3.29-2.23-1.25-.54-2.58-.81-3.99-.81-2.83,0-5.28-1.04-7.35-3.11-.94-.94-1.68-2.04-2.23-3.29-.54-1.25-.81-2.58-.81-3.99,0-2.83-1.04-5.28-3.11-7.35-.94-.94-2.04-1.68-3.29-2.23-1.25-.54-2.58-.81-3.99-.81-1.41,0-2.75.27-3.99.81-1.25.54-2.34,1.28-3.29,2.23-2.07,2.07-3.11,4.52-3.11,7.35,0,1.41.27,2.75.81,3.99.54,1.25,1.28,2.34,2.23,3.29,2.07,2.07,4.52,3.11,7.35,3.11,1.41,0,2.74.27,3.99.81,1.25.54,2.34,1.28,3.29,2.23,2.07,2.07,3.11,4.52,3.11,7.35,0,1.41.27,2.75.81,4,.54,1.25,1.28,2.34,2.23,3.28,2.07,2.07,4.52,3.11,7.35,3.11,1.41,0,2.75.27,3.99.81,1.25.54,2.34,1.28,3.29,2.23,2.07,2.07,3.11,4.52,3.11,7.35,0,1.41-.27,2.75-.81,3.99-.54,1.25-1.28,2.34-2.23,3.29-2.07,2.07-4.52,3.11-7.35,3.11s-5.28-1.04-7.35-3.11c-.94-.94-1.68-2.04-2.23-3.29-.54-1.25-.81-2.58-.81-3.99,0-2.83-1.04-5.28-3.11-7.35-.94-.94-2.04-1.68-3.28-2.23-1.25-.54-2.58-.81-4-.81-2.83,0-5.28-1.03-7.35-3.11-.94-.94-1.68-2.04-2.23-3.29-.54-1.25-.81-2.58-.81-3.99,0-2.83-1.04-5.28-3.11-7.35-.94-.94-2.04-1.68-3.29-2.23-1.25-.54-2.58-.81-3.99-.81-2.83,0-5.28-1.04-7.35-3.11-.94-.94-1.68-2.04-2.23-3.29-.54-1.25-.81-2.58-.81-3.99,0-2.83,1.04-5.28,3.11-7.35Z"/>
</svg>